<svg fill="#36760D" xmlns="http://www.w3.org/2000/svg" xmlns:xlink="http://www.w3.org/1999/xlink" version="1.1" x="0px" y="0px" viewBox="0 0 100 100" style="enable-background:new 0 0 100 100;" xml:space="preserve"><path d="M48.8,78.2c-12,0-21.7-9.7-21.7-21.7s9.7-21.7,21.7-21.7s21.7,9.7,21.7,21.7S60.7,78.2,48.8,78.2z M48.8,37.5  c-10.5,0-19,8.5-19,19c0,10.5,8.5,19,19,19c10.5,0,19-8.5,19-19C67.8,46,59.2,37.5,48.8,37.5z"></path><path d="M60.4,58.1H48.8c-0.7,0-1.2-0.5-1.2-1.2l0-12.3c0-0.7,0.5-1.2,1.2-1.2c0,0,0,0,0,0c0.7,0,1.2,0.5,1.2,1.2  l0,11.1h10.4c0.7,0,1.2,0.5,1.2,1.2S61.1,58.1,60.4,58.1z"></path><path d="M26.1,90L26.1,90c0-0.1-0.6-7.6-10.1-7.6c-9.6,0-10.1,7.6-10.1,7.7v2.2c0,0.6,0.5,1.1,1.1,1.1h18  c0.6,0,1.1-0.5,1.1-1.1L26.1,90z"></path><path d="M15.7,80.6c2.8,0,5-2.5,5-5.6s-2.3-5.6-5-5.6c-2.8,0-5,2.5-5,5.6S13,80.6,15.7,80.6z"></path><path d="M93.1,90L93.1,90c0-0.1-0.6-7.6-10.1-7.6c-9.6,0-10.1,7.6-10.1,7.7v2.2c0,0.6,0.5,1.1,1.1,1.1h18  c0.6,0,1.1-0.5,1.1-1.1L93.1,90z"></path><path d="M82.7,80.6c2.8,0,5-2.5,5-5.6s-2.3-5.6-5-5.6c-2.8,0-5,2.5-5,5.6S79.9,80.6,82.7,80.6z"></path><path d="M59.1,21.4L59.1,21.4c0-0.1-0.6-7.6-10.1-7.6c-9.6,0-10.1,7.6-10.1,7.7v2.2c0,0.6,0.5,1.1,1.1,1.1h18  c0.6,0,1.1-0.5,1.1-1.1L59.1,21.4z"></path><path d="M48.8,11.9c2.8,0,5-2.5,5-5.6s-2.3-5.6-5-5.6c-2.8,0-5,2.5-5,5.6S46,11.9,48.8,11.9z"></path><path d="M33.6,14.9c-0.2-0.5-0.7-0.8-1.2-0.8c-0.2,0-0.4,0-0.5,0.1C-5.3,30.4,6.4,68.2,6.5,68.6  c0.2,0.7,1,1.1,1.6,0.8c0.3-0.1,0.6-0.3,0.8-0.6c0.2-0.3,0.2-0.7,0.1-1c0-0.1-2.9-9-1.3-19.8C9.7,33.6,18.2,23,32.9,16.6  C33.6,16.3,33.9,15.5,33.6,14.9z"></path><path d="M67.6,14.2c-0.2-0.1-0.3-0.1-0.5-0.1c-0.2,0-0.3,0-0.5,0.1c-0.3,0.1-0.6,0.4-0.7,0.7s-0.1,0.7,0,1  c0.1,0.3,0.4,0.6,0.7,0.7c35,15.3,24.4,49.7,24,51.2c-0.2,0.7,0.2,1.4,0.8,1.6c0.7,0.2,1.4-0.2,1.6-0.8  C93.1,68.2,104.8,30.5,67.6,14.2z"></path><path d="M66.7,93.2c-18.2,7.7-33.2,0.1-33.3,0c-0.2-0.1-0.4-0.1-0.6-0.1c-0.1,0-0.3,0-0.4,0.1  c-0.3,0.1-0.6,0.3-0.8,0.6c-0.2,0.3-0.2,0.7-0.1,1c0.1,0.3,0.3,0.6,0.6,0.8c0.3,0.2,7.3,3.8,17.6,3.8c6.1,0,12.1-1.2,17.9-3.7  c0.7-0.3,1-1,0.7-1.7C68.1,93.2,67.3,92.9,66.7,93.2z"></path></svg>