<svg fill="#36760D" xmlns="http://www.w3.org/2000/svg" xmlns:xlink="http://www.w3.org/1999/xlink" version="1.1" x="0px" y="0px" viewBox="0 0 100 100" enable-background="new 0 0 100 100" xml:space="preserve"><g display="none"><rect x="-900.877" y="-877.172" display="inline" fill="#36760D" width="1370.931" height="1263.231"></rect></g><g display="none" opacity="0.31"><g display="inline"><path d="M48.334,55.166h3.333v12.106h7.48c0.11-0.28,0.175-0.583,0.175-0.903V31.71c0-0.123-0.012-0.243-0.019-0.365    c0.128,0.012,0.256,0.018,0.385,0.018c0.795,0,1.595-0.227,2.289-0.721l9.758-6.958c2.013-1.435,2.291-4.432,0.369-6.206    c-0.737-0.68-1.684-1.011-2.641-1.011c-0.862,0-1.734,0.268-2.468,0.792l-9.652,6.882c-0.591,0.421-1.017,0.984-1.297,1.604    c-1.105-0.711-2.413-1.13-3.818-1.13h-4.456c-1.404,0-2.713,0.418-3.818,1.13c-0.28-0.62-0.706-1.182-1.297-1.604l-9.652-6.882    c-0.735-0.524-1.606-0.792-2.468-0.792c-0.958,0-1.904,0.331-2.641,1.011c-1.923,1.774-1.644,4.77,0.369,6.206l9.758,6.958    c0.693,0.494,1.494,0.721,2.289,0.721c0.129,0,0.257-0.006,0.385-0.018c-0.006,0.122-0.019,0.241-0.019,0.365v34.66    c0,0.319,0.066,0.622,0.175,0.903h7.48V55.166z"></path><path d="M90.632,80.055H68.696v-9.006c0-2.082-1.695-3.777-3.778-3.777h-5.771h-7.48h-3.333h-7.48h-5.908    c-2.082,0-3.777,1.694-3.777,3.777v9.006H9.368C6.959,80.055,5,82.014,5,84.422v8.987h3.333h22.836h3.333h30.862h3.333h22.971H95    v-8.987C95,82.014,93.041,80.055,90.632,80.055z"></path><path d="M50,21.565c4.128,0,7.487-3.359,7.487-7.488c0-4.128-3.359-7.487-7.487-7.487s-7.487,3.359-7.487,7.487    C42.513,18.206,45.872,21.565,50,21.565z"></path></g></g><g><path d="M91.936,78.968l-3.049-3.049l-2.469-2.469c-1.127-1.127-2.632-1.749-4.235-1.749c-1.114,0-2.176,0.306-3.101,0.866   l-2.567-2.567c6.031-7.064,5.721-17.72-0.958-24.397c-1.741-1.741-3.754-3.048-5.903-3.925V26.507L52.633,9.495H5v77.474h61.751   h2.905v-11.05v-0.933c1.728-0.706,3.361-1.703,4.843-2.968l2.567,2.567c-0.257,0.424-0.46,0.871-0.602,1.334   c-0.631,2.053-0.138,4.38,1.484,6.002l6.833,6.833c1.167,1.167,2.701,1.751,4.235,1.751c1.009,0,2.016-0.258,2.92-0.763   c0.471-0.263,0.916-0.589,1.316-0.989C94.379,87.626,95,86.122,95,84.518c0-1.603-0.621-3.107-1.749-4.235L91.936,78.968z    M54.06,14.363l9.982,9.975H54.06V14.363z M66.803,84.116H7.853V12.348h43.354v14.844h15.596v13.607   c-3.422-0.77-7.02-0.534-10.329,0.71c-3.23-7.374-10.594-12.541-19.146-12.541c-11.52,0-20.893,9.373-20.893,20.893   s9.373,20.893,20.893,20.893c3.758,0,7.284-1.002,10.334-2.746c0.69,1.081,1.496,2.109,2.44,3.053   c3.509,3.509,8.118,5.264,12.728,5.264c1.334,0,2.665-0.165,3.973-0.459V84.116z M44.915,56.712   c-1.395-0.595-2.918-0.924-4.493-0.924h-0.431c3.484-1.127,6.012-4.399,6.012-8.253c0-4.784-3.892-8.677-8.676-8.677   s-8.676,3.892-8.676,8.677c0,3.854,2.528,7.126,6.012,8.253h-0.49c-4.306,0-8.22,2.454-10.189,6.173   c-2.908-3.204-4.698-7.441-4.698-12.099c0-9.948,8.092-18.04,18.04-18.04c7.415,0,13.794,4.499,16.564,10.908   c-1.354,0.775-2.636,1.72-3.79,2.875C47.004,48.701,45.278,52.656,44.915,56.712z M46.323,65.476   c-2.652,1.534-5.718,2.426-8.995,2.426c-4.214,0-8.087-1.464-11.161-3.894c1.331-3.199,4.497-5.366,8.007-5.366h6.248   c1.619,0,3.163,0.463,4.491,1.269C45.079,61.814,45.554,63.693,46.323,65.476z M37.328,53.358c-3.21,0-5.823-2.612-5.823-5.823   c0-3.211,2.612-5.824,5.823-5.824c3.21,0,5.823,2.612,5.823,5.824C43.151,50.745,40.538,53.358,37.328,53.358z M73.541,69.044   c-5.906,5.906-15.516,5.906-21.423,0s-5.906-15.516,0-21.423c2.953-2.953,6.832-4.43,10.711-4.43s7.758,1.477,10.711,4.43   C79.448,53.528,79.448,63.137,73.541,69.044z M91.234,86.737c-1.178,1.178-3.26,1.176-4.436,0l-6.833-6.833   c-0.589-0.589-0.913-1.376-0.913-2.219c0-0.841,0.324-1.629,0.913-2.218c0.612-0.611,1.415-0.918,2.219-0.918   c0.802,0,1.606,0.306,2.218,0.918l6.833,6.833C92.457,83.524,92.457,85.514,91.234,86.737z"></path></g></svg>