<svg height='100px' width='100px'  fill="#CC0000" xmlns="http://www.w3.org/2000/svg" xmlns:xlink="http://www.w3.org/1999/xlink" version="1.1" x="0px" y="0px" viewBox="0 0 100 100" enable-background="new 0 0 100 100" xml:space="preserve"><g><path d="M80.981,30.641l-29.5-16.75c-0.92-0.521-2.043-0.521-2.963,0l-29.5,16.75C18.08,31.174,17.5,32.17,17.5,33.25v33.5   c0,1.079,0.58,2.076,1.519,2.608l29.5,16.75C48.979,86.369,49.489,86.5,50,86.5s1.021-0.131,1.481-0.392l29.5-16.75   c0.938-0.532,1.519-1.529,1.519-2.608v-33.5C82.5,32.17,81.92,31.174,80.981,30.641z M50,19.95l24.473,13.896L50,47.975   L25.527,33.846L50,19.95z M23.5,36.717L48,50.862v28.052l-24.5-13.91V36.717z M52,78.914V50.862l24.5-14.145v28.287L52,78.914z"></path></g></svg>